<svg xmlns="http://www.w3.org/2000/svg" viewBox="0 0 1200 630" font-family="Helvetica Neue, Helvetica, Arial, sans-serif">
  <defs>
    <linearGradient id="tile" x1="0" y1="0" x2="512" y2="512" gradientUnits="userSpaceOnUse">
      <stop offset="0" stop-color="#3b82f6" />
      <stop offset="1" stop-color="#1d4ed8" />
    </linearGradient>
    <radialGradient id="glow" cx="0.28" cy="0.32" r="0.75">
      <stop offset="0" stop-color="#2563eb" stop-opacity="0.4" />
      <stop offset="1" stop-color="#2563eb" stop-opacity="0" />
    </radialGradient>
    <linearGradient id="bar" x1="0" y1="0" x2="1" y2="0">
      <stop offset="0" stop-color="#60a5fa" />
      <stop offset="1" stop-color="#2563eb" />
    </linearGradient>
  </defs>

  <!-- Canvas -->
  <rect width="1200" height="630" fill="#0b0e16" />
  <rect width="1200" height="630" fill="url(#glow)" />

  <!-- Mark (the app tile), 300px on the left -->
  <g transform="translate(96 165) scale(0.586)">
    <rect width="512" height="512" rx="112" fill="url(#tile)" />
    <path
      fill="#ffffff"
      d="M256 438 C208 360 150 296 150 208 A106 106 0 1 1 362 208 C362 296 314 360 256 438 Z"
    />
    <g stroke="#1d4ed8" fill="none" stroke-linecap="round">
      <circle cx="256" cy="208" r="68" stroke-width="16" />
      <g stroke-width="13">
        <line x1="256" y1="148" x2="256" y2="268" />
        <line x1="196" y1="208" x2="316" y2="208" />
      </g>
    </g>
    <circle cx="256" cy="208" r="19" fill="#1d4ed8" />
  </g>

  <!-- Wordmark block -->
  <text x="472" y="243" fill="#60a5fa" font-size="26" font-weight="700"
        letter-spacing="6" font-family="SF Mono, Menlo, monospace">LIME / VOI / DOTT / VÉLIB</text>

  <text x="470" y="345" fill="#ffffff" font-size="98" font-weight="800" letter-spacing="-2">Bikes Map</text>

  <rect x="472" y="372" width="132" height="7" rx="3.5" fill="url(#bar)" />

  <text x="472" y="437" fill="#aeb6c2" font-size="37" font-weight="500">Tous les vélos de Paris, en temps réel.</text>

  <text x="472" y="522" fill="#6b7280" font-size="28" font-weight="500"
        font-family="SF Mono, Menlo, monospace">bikes.quentinjuarez.dev</text>
</svg>
